<?xml version="1.0" encoding="UTF-8" standalone="no"?>
<!DOCTYPE svg PUBLIC "-//W3C//DTD SVG 1.1//EN" "http://www.w3.org/Graphics/SVG/1.1/DTD/svg11.dtd">
<svg width="100%" height="100%" viewBox="0 0 100 100" version="1.1" xmlns="http://www.w3.org/2000/svg" xmlns:xlink="http://www.w3.org/1999/xlink" xml:space="preserve" xmlns:serif="http://www.serif.com/" style="fill-rule:evenodd;clip-rule:evenodd;stroke-linecap:round;stroke-linejoin:round;stroke-miterlimit:1.5;">
    <g>
        <g transform="matrix(1,0,0,1,-0.131449,-0.0521372)">
            <rect x="0" y="0" width="100" height="100" style="fill:rgb(229,242,13);fill-rule:nonzero;"/>
        </g>
        <g transform="matrix(1.15727,0,0,1.15727,-8.04003,-8.94578)">
            <g transform="matrix(0.901249,0,0,0.901249,4.59911,7.92859)">
                <g>
                    <g transform="matrix(0.939255,0,0,0.939255,0.847427,1.59657)">
                        <path d="M81.92,54.139C81.706,54.378 81.397,54.557 81.188,54.766C80.995,54.959 80.843,55.241 80.665,55.394C80.507,55.528 80.261,55.591 80.1,55.578C79.938,55.565 79.797,55.442 79.697,55.316C79.607,55.202 79.272,54.146 78.131,53.495C77.477,53.121 76.585,53.11 76.297,53.066C76.115,53.039 75.93,53.041 75.748,53.014C75.513,52.979 75.175,52.892 74.885,52.857C74.593,52.822 74.257,52.822 73.996,52.805C73.769,52.79 73.512,52.805 73.316,52.753C73.135,52.704 72.915,52.591 72.819,52.491C72.739,52.407 72.744,52.267 72.741,52.151C72.736,52.012 72.736,51.802 72.793,51.654C72.85,51.506 72.987,51.394 73.081,51.262C73.185,51.114 73.325,50.891 73.421,50.765C73.491,50.672 73.583,50.595 73.656,50.504C73.76,50.373 73.948,50.142 74.048,49.98C74.135,49.841 74.221,49.696 74.257,49.536C74.297,49.362 74.3,49.134 74.284,48.934C74.266,48.721 74.216,48.437 74.153,48.254C74.099,48.101 73.985,47.946 73.902,47.837C73.833,47.746 73.736,47.667 73.656,47.601C73.582,47.541 73.497,47.497 73.42,47.44C73.317,47.363 73.163,47.197 73.035,47.14C72.916,47.088 72.777,47.116 72.649,47.097C72.513,47.078 72.365,47.033 72.22,47.022C72.074,47.012 71.92,47.026 71.77,47.033C71.615,47.04 71.429,47.044 71.288,47.065C71.164,47.084 71.047,47.134 70.924,47.162C70.778,47.195 70.561,47.249 70.411,47.263C70.283,47.275 70.154,47.254 70.026,47.246C69.887,47.238 69.724,47.23 69.574,47.212C69.387,47.19 69.092,47.134 68.905,47.112C68.755,47.094 68.604,47.085 68.453,47.079C68.255,47.07 67.912,47.034 67.716,47.062C67.56,47.084 67.396,47.187 67.281,47.246C67.192,47.292 67.112,47.355 67.03,47.413C66.902,47.505 66.648,47.684 66.511,47.798C66.402,47.889 66.297,48.007 66.21,48.1C66.134,48.18 66.078,48.28 65.992,48.351C65.9,48.426 65.784,48.519 65.658,48.551C65.518,48.588 65.323,48.56 65.156,48.568C64.98,48.577 64.74,48.574 64.603,48.602C64.505,48.622 64.386,48.657 64.335,48.736C64.285,48.814 64.313,48.959 64.302,49.07C64.291,49.185 64.261,49.304 64.269,49.422C64.277,49.547 64.33,49.701 64.352,49.823C64.372,49.934 64.394,50.046 64.402,50.158C64.411,50.275 64.416,50.409 64.402,50.526C64.389,50.641 64.352,50.751 64.319,50.861C64.28,50.992 64.251,51.175 64.17,51.31C64.082,51.453 63.926,51.592 63.795,51.725C63.643,51.879 63.442,52.073 63.259,52.233C63.078,52.393 62.878,52.53 62.697,52.689C62.496,52.865 62.259,53.09 62.054,53.291C61.853,53.488 61.648,53.711 61.465,53.894C61.297,54.061 61.123,54.222 60.956,54.389C60.775,54.57 60.587,54.798 60.38,54.978C60.072,55.246 59.489,55.691 59.108,55.996C58.77,56.266 58.391,56.598 58.094,56.806C57.852,56.976 57.577,57.095 57.323,57.246C57.066,57.397 56.816,57.573 56.551,57.717C56.255,57.878 55.843,58.07 55.544,58.21C55.287,58.33 55.024,58.44 54.762,58.553C54.489,58.67 54.194,58.803 53.906,58.917C53.611,59.033 53.274,59.179 52.995,59.249C52.748,59.311 52.488,59.306 52.234,59.334C51.979,59.363 51.714,59.356 51.463,59.42C51.103,59.512 50.556,59.803 50.075,59.885C49.489,59.984 48.659,59.994 47.95,60.015C47.231,60.037 46.489,60.039 45.76,60.015C44.931,59.988 43.82,59.939 42.981,59.852C42.224,59.773 41.417,59.618 40.725,59.492C40.09,59.377 39.38,59.193 38.829,59.1C38.364,59.022 37.892,58.996 37.424,58.937C36.95,58.877 36.427,58.757 35.985,58.74C35.581,58.725 35.177,58.792 34.776,58.839C34.356,58.888 33.902,58.959 33.468,59.035C32.934,59.127 32.133,59.253 31.572,59.394C31.071,59.521 30.564,59.743 30.101,59.885C29.669,60.017 29.225,60.111 28.793,60.244C28.336,60.386 27.758,60.62 27.355,60.735C27.034,60.826 26.705,60.886 26.374,60.931C26.009,60.98 25.524,61.012 25.165,61.029C24.849,61.043 24.532,61.044 24.217,61.029C23.884,61.012 23.476,61.007 23.171,60.931C22.892,60.861 22.641,60.704 22.386,60.571C22.125,60.435 21.836,60.244 21.602,60.113C21.397,59.999 21.192,59.887 20.98,59.787C20.741,59.672 20.445,59.523 20.163,59.427C19.858,59.323 19.493,59.227 19.15,59.165C18.785,59.1 18.316,59.084 17.973,59.035C17.677,58.992 17.378,58.954 17.09,58.871C16.769,58.779 16.349,58.582 16.044,58.479C15.786,58.391 15.478,58.321 15.26,58.25C15.083,58.193 14.898,58.147 14.737,58.054C14.568,57.956 14.377,57.803 14.246,57.662C14.123,57.528 13.968,57.385 13.952,57.204C13.936,57.013 14.06,56.738 14.148,56.518C14.246,56.272 14.39,55.984 14.54,55.733C14.704,55.461 14.938,55.117 15.129,54.883C15.294,54.68 15.467,54.463 15.685,54.327C15.903,54.191 16.183,54.145 16.436,54.066C16.698,53.984 17.019,53.886 17.254,53.837C17.447,53.796 17.649,53.813 17.842,53.772C18.098,53.717 18.512,53.592 18.79,53.51C19.032,53.439 19.287,53.398 19.509,53.281C19.738,53.161 19.971,52.983 20.163,52.791C20.37,52.584 20.529,52.267 20.752,52.039C20.991,51.794 21.378,51.543 21.602,51.32C21.788,51.133 21.939,50.889 22.092,50.699C22.232,50.523 22.412,50.311 22.517,50.176C22.59,50.082 22.628,49.956 22.723,49.884C23.829,49.039 26.59,45.855 29.153,45.101C32.098,44.236 36.673,45.176 40.39,44.693C44.265,44.189 49.142,42.881 52.404,42.078C54.953,41.45 57.393,40.405 59.964,39.871C62.851,39.272 66.921,38.14 69.73,38.482C72.336,38.799 74.954,40.693 76.817,41.92C78.393,42.959 79.84,44.487 80.903,45.843C81.888,47.099 82.837,48.907 83.191,50.051C83.453,50.899 83.24,52.026 83.028,52.708C82.849,53.284 82.227,53.796 81.92,54.139Z" style="fill:rgb(153,102,138);stroke:black;stroke-width:0.2px;"/>
                        <g transform="matrix(1.47712,0,0,1.58089,-26.0798,-22.8479)">
                            <path d="M60.427,34.516C60.289,34.414 60.163,34.291 60.012,34.208C59.858,34.124 59.66,34.043 59.503,34.008C59.364,33.976 59.211,33.992 59.075,33.994C58.945,33.996 58.814,33.999 58.687,34.021C58.557,34.043 58.419,34.07 58.298,34.128C58.173,34.188 58.051,34.289 57.937,34.382C57.816,34.481 57.689,34.601 57.575,34.717C57.462,34.832 57.359,34.956 57.254,35.079C57.144,35.206 57.033,35.348 56.919,35.48C56.794,35.625 56.666,35.817 56.504,35.949C56.337,36.085 56.122,36.235 55.915,36.297C55.707,36.36 55.46,36.331 55.259,36.324C55.074,36.318 54.885,36.313 54.71,36.257C54.522,36.197 54.338,36.033 54.134,35.962C53.926,35.891 53.688,35.849 53.464,35.829C53.242,35.809 53.017,35.822 52.795,35.842C52.567,35.862 52.321,35.872 52.099,35.949C51.867,36.029 51.623,36.192 51.402,36.324C51.187,36.453 50.956,36.572 50.773,36.739C50.59,36.906 50.463,37.143 50.304,37.328C50.15,37.508 49.956,37.694 49.822,37.85C49.709,37.983 49.61,38.149 49.501,38.266C49.401,38.372 49.088,38.424 49.166,38.547C49.34,38.821 49.912,39.782 50.545,39.912C51.327,40.073 52.782,39.804 53.853,39.511C55.132,39.16 57.08,38.355 58.218,37.81C59.096,37.39 60.313,36.793 60.682,36.244C61.006,35.76 60.512,35.092 60.427,34.516" style="fill:rgb(153,102,138);stroke:black;stroke-width:0.13px;"/>
                        </g>
                        <g transform="matrix(1,0,0,1.18154,-0.371247,-8.10529)">
                            <path d="M91.127,53.396C90.99,53.002 81.687,42.914 70.21,39.766C62.769,37.726 60.446,40.572 53.284,40.669C44.909,40.782 32.234,38.356 32.143,38.449C31.852,38.745 31.423,38.977 31.07,39.127C30.742,39.267 30.359,39.316 30.025,39.353C29.707,39.389 29.384,39.353 29.064,39.353C28.697,39.353 28.212,39.33 27.822,39.353C27.452,39.376 27.082,39.438 26.72,39.494C26.361,39.55 25.957,39.598 25.647,39.692C25.369,39.776 25.063,39.895 24.856,40.059C24.655,40.219 24.475,40.474 24.404,40.681C24.337,40.877 24.567,41.145 24.432,41.302C24.263,41.5 23.706,41.632 23.387,41.867C23.029,42.131 22.577,42.512 22.286,42.884C22.002,43.245 21.85,43.692 21.636,44.098C21.41,44.527 21.085,45.063 20.93,45.454C20.805,45.768 20.686,46.105 20.704,46.443C20.723,46.8 20.916,47.233 21.043,47.601C21.166,47.956 21.278,48.344 21.467,48.646C21.65,48.939 21.877,49.228 22.173,49.408C22.521,49.62 23.105,49.79 23.557,49.917C23.99,50.039 24.451,50.138 24.884,50.171C25.307,50.203 25.736,50.177 26.155,50.114C26.626,50.044 27.271,49.912 27.709,49.747C28.095,49.602 28.402,49.288 28.782,49.126C29.168,48.961 29.653,48.876 30.025,48.759C30.357,48.654 30.74,48.514 31.013,48.42C31.23,48.345 31.435,48.17 31.663,48.194C31.931,48.222 32.378,48.434 32.623,48.589C32.831,48.721 32.961,48.948 33.131,49.126C33.339,49.342 33.678,49.672 33.866,49.888C34.012,50.056 34.124,50.25 34.261,50.425C34.487,50.712 34.877,51.279 35.222,51.611C35.55,51.928 35.92,52.214 36.327,52.419C36.754,52.635 37.32,52.824 37.783,52.905C38.218,52.981 38.747,52.853 39.107,52.905C39.402,52.947 39.682,53.076 39.946,53.214C40.284,53.39 40.816,53.622 41.138,53.964C41.468,54.317 41.573,54.945 41.932,55.332C42.307,55.737 42.96,56.177 43.388,56.391C43.726,56.56 44.124,56.567 44.499,56.618C44.882,56.671 45.293,56.729 45.692,56.708C46.162,56.684 46.894,56.6 47.319,56.473C47.657,56.373 47.957,56.112 48.24,55.949C48.5,55.8 48.734,55.593 49.018,55.497C49.385,55.374 50.006,55.271 50.446,55.208C50.846,55.15 51.261,55.203 51.657,55.118C52.091,55.024 52.61,54.866 53.049,54.648C53.51,54.419 54.073,54.03 54.423,53.744C54.703,53.514 54.967,53.247 55.146,52.93C55.341,52.584 55.434,52.049 55.593,51.667C55.74,51.314 55.872,50.944 56.1,50.637C56.347,50.302 56.832,49.929 57.076,49.66C57.255,49.464 57.449,49.251 57.564,49.028C57.675,48.811 57.686,48.555 57.763,48.323C57.856,48.04 58.079,47.618 58.124,47.329C58.163,47.083 58.052,46.835 58.034,46.587C58.016,46.341 58.045,46.092 58.016,45.846C57.977,45.515 57.832,44.921 57.799,44.599C57.775,44.371 57.784,44.09 57.817,43.912C57.843,43.774 57.91,43.641 57.998,43.533C58.085,43.424 58.208,43.307 58.341,43.261C58.474,43.216 58.644,43.239 58.793,43.261C58.95,43.286 59.138,43.315 59.281,43.406C59.429,43.499 59.547,43.682 59.679,43.822C59.823,43.975 59.985,44.166 60.149,44.328C60.345,44.521 60.637,44.852 60.854,44.979C61.028,45.081 61.263,45.123 61.45,45.087C61.637,45.051 61.809,44.87 61.974,44.762C62.134,44.657 62.318,44.563 62.444,44.436C62.567,44.313 62.661,44.147 62.734,44.003C62.802,43.866 62.829,43.713 62.878,43.569C62.929,43.418 62.97,43.249 63.041,43.099C63.113,42.945 63.198,42.776 63.312,42.647C63.427,42.517 63.591,42.41 63.728,42.321C63.854,42.239 63.988,42.164 64.13,42.114C64.273,42.063 64.429,42.041 64.582,42.021C64.825,41.988 65.334,41.953 65.588,41.917C65.764,41.892 65.936,41.843 66.109,41.801C66.282,41.759 66.475,41.72 66.629,41.662C66.771,41.609 66.897,41.518 67.034,41.454C67.183,41.385 67.376,41.302 67.52,41.246C67.645,41.197 67.77,41.145 67.902,41.119C68.066,41.086 68.302,41.051 68.503,41.049C68.708,41.047 68.922,41.074 69.128,41.107C69.356,41.144 69.658,41.211 69.869,41.269C70.046,41.318 70.23,41.362 70.389,41.454C70.567,41.556 70.761,41.757 70.933,41.882C71.09,41.997 71.272,42.081 71.419,42.206C71.565,42.331 71.71,42.517 71.812,42.634C71.89,42.723 71.964,42.816 72.032,42.912C72.126,43.045 72.261,43.261 72.379,43.432C72.506,43.617 72.617,43.861 72.796,44.022C72.974,44.183 73.28,44.331 73.452,44.399C73.569,44.445 73.703,44.425 73.829,44.43C74.012,44.438 74.339,44.449 74.55,44.446C74.734,44.444 74.917,44.405 75.1,44.415C75.293,44.425 75.557,44.464 75.712,44.509C75.826,44.542 75.953,44.587 76.025,44.681C76.12,44.804 76.228,45.046 76.277,45.246C76.326,45.45 76.316,45.725 76.324,45.905C76.33,46.046 76.329,46.188 76.324,46.329C76.316,46.528 76.274,46.841 76.277,47.098C76.279,47.365 76.3,47.746 76.339,47.93C76.361,48.033 76.448,48.112 76.512,48.196C76.596,48.306 76.732,48.457 76.841,48.589C76.959,48.73 77.116,48.931 77.218,49.044C77.29,49.123 77.36,49.21 77.453,49.263C77.568,49.329 77.759,49.373 77.908,49.436C78.076,49.506 78.29,49.624 78.458,49.687C78.605,49.742 78.762,49.766 78.913,49.812C79.101,49.87 79.368,49.943 79.587,50.032C79.807,50.121 80.024,50.227 80.231,50.346C80.444,50.469 80.712,50.582 80.869,50.773C81.025,50.964 81.075,51.261 81.17,51.493C81.261,51.715 81.349,51.939 81.438,52.162C81.544,52.43 81.625,52.817 81.806,53.099C81.998,53.401 82.397,53.791 82.593,53.97C82.699,54.067 82.846,54.111 82.978,54.171C83.156,54.252 83.463,54.399 83.664,54.455C83.831,54.502 84.01,54.489 84.183,54.505C84.392,54.525 84.673,54.561 84.919,54.572C85.167,54.584 85.421,54.578 85.672,54.572C85.937,54.567 86.231,54.566 86.509,54.539C86.849,54.505 87.357,54.411 87.714,54.372C88.026,54.337 88.389,54.344 88.652,54.305C88.869,54.272 91.2,53.604 91.127,53.396Z" style="fill:rgb(89,152,166);stroke:black;stroke-width:0.19px;"/>
                        </g>
                        <g transform="matrix(1,0,0,0.994144,-3.77476e-15,-0.910758)">
                            <path d="M89.29,54.134C88.96,53.186 87.302,50.203 86.67,48.617C86.155,47.327 85.819,45.606 85.497,44.618C85.283,43.96 85.003,43.204 84.739,42.687C84.521,42.261 83.923,41.928 83.911,41.515C83.9,41.101 84.44,40.63 84.67,40.205C84.89,39.798 84.958,39.285 85.291,38.963C85.635,38.63 86.322,38.556 86.739,38.205C87.175,37.837 87.624,37.262 87.911,36.757C88.187,36.27 88.267,35.585 88.463,35.171C88.618,34.842 88.948,34.612 89.083,34.274C89.244,33.872 89.623,32.895 89.428,32.757C89.233,32.619 88.368,33.132 87.911,33.447C87.394,33.803 86.808,34.504 86.325,34.895C85.914,35.228 85.394,35.539 85.015,35.791C84.696,36.004 84.293,36.117 84.049,36.412C83.773,36.745 83.712,37.417 83.36,37.791C82.992,38.182 82.142,38.814 81.843,38.756C81.544,38.699 81.535,37.891 81.567,37.446C81.601,36.964 81.847,36.217 82.05,35.86C82.2,35.594 82.585,35.54 82.781,35.305C82.993,35.05 83.165,34.666 83.323,34.329C83.501,33.949 83.739,33.476 83.847,33.028C83.956,32.579 83.937,32.1 83.974,31.636C84.016,31.102 84.097,30.432 84.1,29.828C84.103,29.21 83.995,28.337 83.992,27.93C83.99,27.747 84.097,27.57 84.082,27.388C84.067,27.204 84.025,26.776 83.901,26.827C83.778,26.879 83.501,27.39 83.341,27.695C83.16,28.038 82.986,28.488 82.817,28.888C82.642,29.301 82.446,29.792 82.293,30.171C82.159,30.502 82.035,30.838 81.895,31.166C81.75,31.503 81.584,31.854 81.425,32.196C81.244,32.585 80.961,33.139 80.81,33.498C80.694,33.773 80.584,34.172 80.521,34.347C80.496,34.416 80.48,34.492 80.431,34.546C80.286,34.706 79.849,35.052 79.653,35.305C79.479,35.531 79.382,35.899 79.256,36.064C79.168,36.179 79.03,36.345 78.894,36.299C78.759,36.254 78.629,35.92 78.442,35.793C78.243,35.658 77.942,35.602 77.7,35.488C77.327,35.313 76.726,34.927 76.2,34.738C75.626,34.532 74.788,34.4 74.258,34.253C73.841,34.137 73.443,33.955 73.022,33.856C72.463,33.723 71.581,33.547 70.904,33.458C70.261,33.374 69.558,33.363 68.962,33.326C68.418,33.292 67.83,33.274 67.329,33.238C66.872,33.204 66.418,33.066 65.961,33.105C65.454,33.149 64.842,33.367 64.284,33.503C63.711,33.642 63.102,33.776 62.519,33.944C61.879,34.128 60.982,34.407 60.445,34.606C60.05,34.752 59.678,34.956 59.297,35.135C58.783,35.378 57.996,35.739 57.356,36.062C56.701,36.393 55.929,36.864 55.37,37.121C54.93,37.324 54.459,37.45 54.002,37.607C53.509,37.776 52.955,38.002 52.413,38.136C51.788,38.291 50.853,38.431 50.25,38.534C49.766,38.616 49.285,38.768 48.794,38.754C48.257,38.739 47.588,38.592 47.029,38.445C46.484,38.302 32.434,38.154 32.143,38.449C31.852,38.745 31.423,38.977 31.07,39.127C30.742,39.267 30.359,39.316 30.025,39.353C29.707,39.389 29.384,39.353 29.064,39.353C28.697,39.353 28.212,39.33 27.822,39.353C27.452,39.376 27.082,39.438 26.72,39.494C26.361,39.55 25.957,39.598 25.647,39.692C25.369,39.776 25.063,39.895 24.856,40.059C24.655,40.219 24.475,40.474 24.404,40.681C24.337,40.877 24.567,41.145 24.432,41.302C24.263,41.5 23.706,41.632 23.387,41.867C23.029,42.131 22.577,42.512 22.286,42.884C22.002,43.245 21.85,43.692 21.636,44.098C21.41,44.527 21.085,45.063 20.93,45.454C20.805,45.768 20.686,46.105 20.704,46.443C20.723,46.8 20.916,47.233 21.043,47.601C21.166,47.956 21.278,48.344 21.467,48.646C21.65,48.939 21.877,49.228 22.173,49.408C22.521,49.62 23.105,49.79 23.557,49.917C23.99,50.039 24.451,50.138 24.884,50.171C25.307,50.203 25.736,50.177 26.155,50.114C26.626,50.044 27.271,49.912 27.709,49.747C28.095,49.602 28.402,49.288 28.782,49.126C29.168,48.961 29.653,48.876 30.025,48.759C30.357,48.654 30.74,48.514 31.013,48.42C31.23,48.345 31.435,48.17 31.663,48.194C31.931,48.222 32.378,48.434 32.623,48.589C32.831,48.721 32.961,48.948 33.131,49.126C33.339,49.342 33.678,49.672 33.866,49.888C34.012,50.056 34.124,50.25 34.261,50.425C34.487,50.712 34.877,51.279 35.222,51.611C35.55,51.928 35.92,52.214 36.327,52.419C36.754,52.635 37.32,52.824 37.783,52.905C38.218,52.981 38.747,52.853 39.107,52.905C39.402,52.947 39.682,53.076 39.946,53.214C40.284,53.39 40.816,53.622 41.138,53.964C41.468,54.317 41.573,54.945 41.932,55.332C42.307,55.737 42.96,56.177 43.388,56.391C43.726,56.56 44.124,56.567 44.499,56.618C44.882,56.671 45.293,56.729 45.692,56.708C46.162,56.684 46.894,56.6 47.319,56.473C47.657,56.373 47.957,56.112 48.24,55.949C48.5,55.8 48.734,55.593 49.018,55.497C49.385,55.374 50.006,55.271 50.446,55.208C50.846,55.15 51.261,55.203 51.657,55.118C52.091,55.024 52.61,54.866 53.049,54.648C53.51,54.419 54.073,54.03 54.423,53.744C54.703,53.514 54.967,53.247 55.146,52.93C55.341,52.584 55.434,52.049 55.593,51.667C55.74,51.314 55.872,50.944 56.1,50.637C56.347,50.302 56.832,49.929 57.076,49.66C57.255,49.464 57.449,49.251 57.564,49.028C57.675,48.811 57.686,48.555 57.763,48.323C57.856,48.04 58.079,47.618 58.124,47.329C58.163,47.083 58.052,46.835 58.034,46.587C58.016,46.341 58.045,46.092 58.016,45.846C57.977,45.515 57.832,44.921 57.799,44.599C57.775,44.371 57.784,44.09 57.817,43.912C57.843,43.774 57.91,43.641 57.998,43.533C58.085,43.424 58.208,43.307 58.341,43.261C58.474,43.216 58.644,43.239 58.793,43.261C58.95,43.286 59.138,43.315 59.281,43.406C59.429,43.499 59.547,43.682 59.679,43.822C59.823,43.975 59.985,44.166 60.149,44.328C60.345,44.521 60.637,44.852 60.854,44.979C61.028,45.081 61.263,45.123 61.45,45.087C61.637,45.051 61.809,44.87 61.974,44.762C62.134,44.657 62.318,44.563 62.444,44.436C62.567,44.313 62.661,44.147 62.734,44.003C62.802,43.866 62.829,43.713 62.878,43.569C62.929,43.418 62.97,43.249 63.041,43.099C63.113,42.945 63.198,42.776 63.312,42.647C63.427,42.517 63.591,42.41 63.728,42.321C63.854,42.239 63.988,42.164 64.13,42.114C64.273,42.063 64.429,42.041 64.582,42.021C64.825,41.988 65.334,41.953 65.588,41.917C65.764,41.892 65.936,41.843 66.109,41.801C66.282,41.759 66.475,41.72 66.629,41.662C66.771,41.609 66.897,41.518 67.034,41.454C67.183,41.385 67.376,41.302 67.52,41.246C67.645,41.197 67.77,41.145 67.902,41.119C68.066,41.086 68.302,41.051 68.503,41.049C68.708,41.047 68.922,41.074 69.128,41.107C69.356,41.144 69.658,41.211 69.869,41.269C70.046,41.318 70.23,41.362 70.389,41.454C70.567,41.556 70.761,41.757 70.933,41.882C71.09,41.997 71.272,42.081 71.419,42.206C71.565,42.331 71.71,42.517 71.812,42.634C71.89,42.723 71.964,42.816 72.032,42.912C72.126,43.045 72.261,43.261 72.379,43.432C72.506,43.617 72.617,43.861 72.796,44.022C72.974,44.183 73.28,44.331 73.452,44.399C73.569,44.445 73.703,44.425 73.829,44.43C74.012,44.438 74.339,44.449 74.55,44.446C74.734,44.444 74.917,44.405 75.1,44.415C75.293,44.425 75.557,44.464 75.712,44.509C75.826,44.542 75.953,44.587 76.025,44.681C76.12,44.804 76.228,45.046 76.277,45.246C76.326,45.45 76.316,45.725 76.324,45.905C76.33,46.046 76.329,46.188 76.324,46.329C76.316,46.528 76.274,46.841 76.277,47.098C76.279,47.365 76.3,47.746 76.339,47.93C76.361,48.033 76.448,48.112 76.512,48.196C76.596,48.306 76.732,48.457 76.841,48.589C76.959,48.73 77.116,48.931 77.218,49.044C77.29,49.123 77.36,49.21 77.453,49.263C77.568,49.329 77.759,49.373 77.908,49.436C78.076,49.506 78.29,49.624 78.458,49.687C78.605,49.742 78.762,49.766 78.913,49.812C79.101,49.87 79.368,49.943 79.587,50.032C79.807,50.121 80.024,50.227 80.231,50.346C80.444,50.469 80.712,50.582 80.869,50.773C81.025,50.964 81.075,51.261 81.17,51.493C81.261,51.715 81.349,51.939 81.438,52.162C81.544,52.43 81.625,52.817 81.806,53.099C81.998,53.401 82.397,53.791 82.593,53.97C82.699,54.067 82.846,54.111 82.978,54.171C83.156,54.252 83.463,54.399 83.664,54.455C83.831,54.502 84.01,54.489 84.183,54.505C84.392,54.525 84.673,54.561 84.919,54.572C85.167,54.584 85.421,54.578 85.672,54.572C85.937,54.567 86.231,54.566 86.509,54.539C86.849,54.505 87.357,54.411 87.714,54.372C88.026,54.337 88.389,54.344 88.652,54.305C88.869,54.272 89.362,54.342 89.29,54.134Z" style="fill:rgb(26,194,230);stroke:black;stroke-width:0.2px;"/>
                        </g>
                        <path d="M32.813,37.355C32.788,37.536 33.306,40.112 36.894,40.219C39.555,40.298 45.606,37.953 45.44,37.872C45.157,37.733 44.806,37.527 44.69,37.298C44.574,37.069 44.686,36.758 44.744,36.497C44.805,36.216 44.966,35.887 45.06,35.616C45.146,35.368 45.247,35.124 45.309,34.87C45.38,34.576 45.452,34.166 45.489,33.853C45.524,33.569 45.535,33.281 45.535,32.994C45.535,32.682 45.527,32.279 45.489,31.978C45.456,31.709 45.375,31.449 45.309,31.187C45.241,30.919 45.231,30.612 45.083,30.373C44.891,30.065 44.442,29.7 44.156,29.334C43.863,28.957 43.584,28.434 43.32,28.114C43.103,27.851 42.819,27.602 42.575,27.413C42.352,27.242 42.111,27.091 41.852,26.984C41.46,26.822 40.688,26.558 40.225,26.442C39.849,26.347 39.46,26.277 39.072,26.284C38.65,26.291 38.033,26.381 37.694,26.487C37.445,26.565 37.262,26.781 37.039,26.916C36.771,27.078 36.297,27.255 36.09,27.459C35.914,27.631 35.928,28.023 35.796,28.136C35.67,28.244 35.453,28.197 35.299,28.136C35.058,28.042 34.598,27.685 34.35,27.572C34.182,27.495 33.989,27.493 33.807,27.459C33.608,27.421 33.372,27.373 33.152,27.346C32.915,27.315 32.636,27.285 32.384,27.278C32.135,27.27 31.657,27.225 31.638,27.3C31.619,27.376 32.06,27.587 32.271,27.73C32.482,27.873 32.693,28.016 32.904,28.159C33.126,28.31 33.412,28.498 33.604,28.634C33.758,28.742 33.926,28.836 34.056,28.972C34.203,29.127 34.508,29.458 34.485,29.56C34.463,29.662 34.109,29.586 33.92,29.583C33.687,29.579 33.378,29.537 33.084,29.537L32.429,29.537C32.184,29.537 31.876,29.526 31.616,29.537C31.366,29.548 31.088,29.583 30.87,29.605C30.681,29.625 30.249,29.59 30.305,29.673C30.362,29.756 30.889,30.008 31.209,30.102C31.555,30.204 32.098,30.196 32.384,30.283C32.588,30.345 32.771,30.476 32.926,30.622C33.1,30.784 33.292,31.032 33.423,31.255C33.553,31.472 33.658,31.709 33.717,31.955C33.777,32.207 33.781,32.535 33.785,32.768C33.788,32.965 33.759,33.164 33.74,33.356C33.721,33.545 33.687,33.733 33.672,33.921C33.657,34.109 33.736,34.512 33.649,34.486C33.563,34.459 33.284,34.015 33.152,33.763C33.022,33.513 32.923,33.168 32.858,32.972C32.818,32.847 32.79,32.717 32.768,32.588C32.73,32.369 32.663,31.902 32.633,31.661C32.611,31.489 32.67,31.213 32.587,31.142C32.504,31.07 32.244,31.123 32.135,31.232C32,31.368 31.881,31.708 31.774,31.955C31.65,32.241 31.454,32.693 31.39,32.949C31.346,33.125 31.39,33.311 31.39,33.492C31.39,33.782 31.371,34.392 31.39,34.689C31.402,34.888 31.42,35.095 31.503,35.277C31.593,35.476 31.789,35.683 31.932,35.887C32.083,36.101 32.265,36.328 32.407,36.565C32.553,36.809 32.854,37.062 32.813,37.355Z" style="fill:rgb(153,102,138);stroke:black;stroke-width:0.2px;"/>
                    </g>
                    <ellipse cx="78.62" cy="32.867" rx="0.241" ry="0.22" style="fill:rgb(242,242,242);"/>
                    <g transform="matrix(1,0,0,1,3.76203,3.05932)">
                        <ellipse cx="78.62" cy="32.867" rx="0.241" ry="0.22" style="fill:rgb(242,242,242);"/>
                    </g>
                    <g transform="matrix(1,0,0,1,2.0824,3.72775)">
                        <ellipse cx="78.62" cy="32.867" rx="0.241" ry="0.22" style="fill:rgb(242,242,242);"/>
                    </g>
                    <g transform="matrix(1,0,0,1,5.47593,0.522742)">
                        <ellipse cx="78.62" cy="32.867" rx="0.241" ry="0.22" style="fill:rgb(242,242,242);"/>
                    </g>
                    <g transform="matrix(1,0,0,1,0.308503,-3.31641)">
                        <ellipse cx="78.62" cy="32.867" rx="0.241" ry="0.22" style="fill:rgb(242,242,242);"/>
                    </g>
                    <g transform="matrix(0.643826,0,0,0.668419,27.6595,10.234)">
                        <ellipse cx="78.62" cy="32.867" rx="0.241" ry="0.22" style="fill:rgb(242,242,242);"/>
                    </g>
                    <g transform="matrix(0.697252,0,0,0.980495,22.9322,1.3395)">
                        <ellipse cx="78.62" cy="32.867" rx="0.241" ry="0.22" style="fill:rgb(242,242,242);"/>
                    </g>
                    <g transform="matrix(0.401462,0.570078,-0.801659,0.564546,75.1817,-27.5534)">
                        <ellipse cx="78.62" cy="32.867" rx="0.241" ry="0.22" style="fill:rgb(242,242,242);"/>
                    </g>
                    <g transform="matrix(-0.662728,0.216684,-0.304707,-0.931946,145.394,49.1827)">
                        <ellipse cx="78.62" cy="32.867" rx="0.241" ry="0.22" style="fill:rgb(242,242,242);"/>
                    </g>
                    <g transform="matrix(0.534028,0.448302,-0.630415,0.750964,57.0589,-28.6072)">
                        <ellipse cx="78.62" cy="32.867" rx="0.241" ry="0.22" style="fill:rgb(242,242,242);"/>
                    </g>
                    <g transform="matrix(0.430122,0,0,0.375847,43.5783,20.2056)">
                        <ellipse cx="78.62" cy="32.867" rx="0.241" ry="0.22" style="fill:rgb(242,242,242);"/>
                    </g>
                    <g transform="matrix(0.430122,0,0,0.375847,44.8809,18.0547)">
                        <ellipse cx="78.62" cy="32.867" rx="0.241" ry="0.22" style="fill:rgb(242,242,242);"/>
                    </g>
                    <g transform="matrix(0.430122,0,0,0.375847,45.5407,17.5919)">
                        <ellipse cx="78.62" cy="32.867" rx="0.241" ry="0.22" style="fill:rgb(242,242,242);"/>
                    </g>
                    <g transform="matrix(0.430122,0,0,0.375847,45.635,17.8404)">
                        <ellipse cx="78.62" cy="32.867" rx="0.241" ry="0.22" style="fill:rgb(242,242,242);"/>
                    </g>
                    <g transform="matrix(1,0,0,1,4.66868,0.783255)">
                        <ellipse cx="78.62" cy="32.867" rx="0.241" ry="0.22" style="fill:rgb(242,242,242);"/>
                    </g>
                    <g transform="matrix(0.430122,0,0,0.375847,49.2411,22.1543)">
                        <ellipse cx="78.62" cy="32.867" rx="0.241" ry="0.22" style="fill:rgb(242,242,242);"/>
                    </g>
                    <g transform="matrix(0.430122,0,0,0.375847,49.9009,21.6916)">
                        <ellipse cx="78.62" cy="32.867" rx="0.241" ry="0.22" style="fill:rgb(242,242,242);"/>
                    </g>
                    <g transform="matrix(0.430122,0,0,0.375847,49.9952,21.9401)">
                        <ellipse cx="78.62" cy="32.867" rx="0.241" ry="0.22" style="fill:rgb(242,242,242);"/>
                    </g>
                    <g transform="matrix(0.430122,0,0,0.375847,42.9956,21.7396)">
                        <ellipse cx="78.62" cy="32.867" rx="0.241" ry="0.22" style="fill:rgb(242,242,242);"/>
                    </g>
                    <g transform="matrix(0.430122,0,0,0.375847,42.987,21.3882)">
                        <ellipse cx="78.62" cy="32.867" rx="0.241" ry="0.22" style="fill:rgb(242,242,242);"/>
                    </g>
                    <g transform="matrix(0.430122,0,0,0.375847,43.2698,21.5425)">
                        <ellipse cx="78.62" cy="32.867" rx="0.241" ry="0.22" style="fill:rgb(242,242,242);"/>
                    </g>
                    <g transform="matrix(0.430122,0,0,0.375847,45.515,19.52)">
                        <ellipse cx="78.62" cy="32.867" rx="0.241" ry="0.22" style="fill:rgb(242,242,242);"/>
                    </g>
                    <g transform="matrix(0.430122,0,0,0.375847,45.515,19.52)">
                        <ellipse cx="78.62" cy="32.867" rx="0.241" ry="0.22" style="fill:rgb(242,242,242);"/>
                    </g>
                    <g transform="matrix(0.430122,0,0,0.375847,48.4629,24.6789)">
                        <ellipse cx="78.62" cy="32.867" rx="0.241" ry="0.22" style="fill:rgb(242,242,242);"/>
                    </g>
                    <g transform="matrix(0.430122,0,0,0.375847,48.4629,24.6789)">
                        <ellipse cx="78.62" cy="32.867" rx="0.241" ry="0.22" style="fill:rgb(242,242,242);"/>
                    </g>
                    <g transform="matrix(0.430122,0,0,0.375847,48.7629,24.4561)">
                        <ellipse cx="78.62" cy="32.867" rx="0.241" ry="0.22" style="fill:rgb(242,242,242);"/>
                    </g>
                    <g transform="matrix(0.430122,0,0,0.375847,48.043,22.8279)">
                        <ellipse cx="78.62" cy="32.867" rx="0.241" ry="0.22" style="fill:rgb(242,242,242);"/>
                    </g>
                    <g transform="matrix(0.430122,0,0,0.375847,47.7002,24.0705)">
                        <ellipse cx="78.62" cy="32.867" rx="0.241" ry="0.22" style="fill:rgb(242,242,242);"/>
                    </g>
                    <g transform="matrix(0.430122,0,0,0.375847,44.8637,21.3968)">
                        <ellipse cx="78.62" cy="32.867" rx="0.241" ry="0.22" style="fill:rgb(242,242,242);"/>
                    </g>
                    <g transform="matrix(1.00607,0,0,1.06549,-0.141603,-2.43445)">
                        <path d="M31.445,36.058L31.633,36.846L32.079,37.737L32.542,38.252L33.09,38.766L33.45,38.92L33.879,39.143L34.478,39.126L34.838,39.28L35.524,39.314L36.415,39.297L36.912,39.194L37.906,39.091L38.952,38.8L39.552,38.474L40.152,38.32L40.923,38.046L41.523,37.892L42.225,37.669L42.62,37.497L43.031,37.343L43.322,37.257L43.596,37.12L43.082,36.863L42.791,36.486L42.757,35.938L42.054,36.281L41.231,36.589L40.58,36.812L39.997,36.983L39.157,37.155L38.438,37.326L37.803,37.395L37.015,37.48L36.484,37.532L35.901,37.583L35.335,37.566L34.787,37.549L34.359,37.429L33.724,37.12L33.262,36.932L32.713,36.658L32.302,36.383L32.01,36.126L31.702,35.972L31.445,36.058Z" style="fill:rgb(242,242,242);fill-opacity:0.04;"/>
                    </g>
                </g>
            </g>
            <g transform="matrix(1,0,0,1,-0.571683,-1.54017)">
                <g transform="matrix(1.13667,0,0,1.21124,-10.0918,-13.3454)">
                    <path d="M64.286,60.162C62.903,60.335 61.525,60.212 60.183,59.877C60.132,59.864 58.885,59.494 59.144,59.305C59.725,58.881 60.722,58.814 61.398,58.693C63.64,58.291 66.108,58.398 68.373,58.544C69.253,58.6 70.012,58.688 70.845,58.966C71.026,59.026 71.784,59.398 71.784,59.377" style="fill:none;stroke:rgb(38,38,38);stroke-width:0.15px;"/>
                </g>
                <path d="M57.727,59.773C58.379,59.552 59.049,59.364 59.64,59.001C59.986,58.79 60.308,58.523 60.612,58.259C60.976,57.941 61.317,57.592 61.559,57.168C61.601,57.094 61.747,56.668 61.554,56.716C61.203,56.804 60.962,57.531 60.812,57.802C60.251,58.811 59.761,60.019 60.155,61.201" style="fill:none;stroke:rgb(38,38,38);stroke-width:0.17px;"/>
                <path d="M61.611,58.83C61.506,58.83 61.038,59.228 60.954,59.144C60.938,59.128 61.297,58.93 61.326,58.916C61.562,58.797 61.983,58.544 62.24,58.544C62.368,58.544 61.892,58.739 61.983,58.83C62.019,58.867 62.315,58.83 62.354,58.83C62.807,58.83 63.267,58.801 63.725,58.801" style="fill:none;stroke:rgb(38,38,38);stroke-width:0.17px;"/>
                <path d="M65.81,58.658C65.885,58.792 66.138,58.53 66.182,58.487C66.423,58.25 66.885,57.947 67.015,57.623C67.082,57.454 67.276,56.882 66.924,57.116C66.805,57.196 67.209,57.172 67.353,57.173C67.657,57.176 67.885,57.115 68.181,57.03C68.239,57.014 68.413,56.973 68.353,56.973C68.132,56.973 67.994,57.461 67.924,57.602C67.531,58.389 67.055,59.191 66.553,59.915C66.233,60.377 65.877,60.87 65.525,61.315C65.398,61.475 64.852,62.001 64.953,62.001" style="fill:none;stroke:rgb(38,38,38);stroke-width:0.17px;"/>
                <path d="M68.524,58.344C68.461,58.344 68.229,58.506 68.267,58.544C68.335,58.613 68.719,58.5 68.781,58.459C69.163,58.204 69.914,58.373 70.381,58.373" style="fill:none;stroke:rgb(38,38,38);stroke-width:0.17px;"/>
            </g>
        </g>
    </g>
</svg>
